<?xml version="1.0" encoding="utf-8"?>
<!-- Generator: Adobe Illustrator 26.3.1, SVG Export Plug-In . SVG Version: 6.00 Build 0)  -->
<svg version="1.1" id="Layer_1" xmlns="http://www.w3.org/2000/svg" xmlns:xlink="http://www.w3.org/1999/xlink" x="0px" y="0px"
	 viewBox="0 0 128 128" style="enable-background:new 0 0 128 128;" xml:space="preserve">
<style type="text/css">
	.st0{fill:#FFFFFF;stroke:#E93E3F;stroke-width:4;stroke-linecap:round;stroke-linejoin:round;stroke-miterlimit:10;}
</style>
<path class="st0" d="M64,4c10.1,0,18.4,8,18.9,18.2l0,1.1h30.6c2.4,0,4.4,2,4.4,4.4c0,2.2-1.6,4.1-3.8,4.4l-0.6,0H109l-7.5,77.2
	c-0.8,7.9-7.1,14.2-15,14.7l-1,0h-43c-7.9,0-14.6-5.8-15.8-13.7l-0.1-1L19,32.1h-4.6c-2.2,0-4-1.6-4.3-3.8l0-0.6
	c0-2.2,1.6-4.1,3.8-4.4l0.6,0H45C45,12.6,53.5,4,64,4z M100.2,32.1H27.8l7.4,76.3c0.3,3.5,3.1,6.3,6.5,6.6l0.7,0h43
	c3.5,0,6.5-2.5,7.2-5.9l0.1-0.7L100.2,32.1L100.2,32.1z M74.2,48.4c2.2,0,4,1.6,4.3,3.8l0,0.6v41.5c0,2.5-2,4.4-4.4,4.4
	c-2.2,0-4-1.6-4.3-3.8l0-0.6V52.9C69.8,50.4,71.8,48.4,74.2,48.4z M53.8,48.4c2.2,0,4,1.6,4.3,3.8l0,0.6v41.5c0,2.5-2,4.4-4.4,4.4
	c-2.2,0-4-1.6-4.3-3.8l0-0.6V52.9C49.4,50.4,51.4,48.4,53.8,48.4z M64,12.9c-5.3,0-9.7,4.1-10.2,9.5l0,0.9h20.4
	C74.2,17.5,69.6,12.9,64,12.9z"/>
</svg>
